<svg width="119" height="112" viewBox="0 0 119 112" fill="none" xmlns="http://www.w3.org/2000/svg">
<ellipse cx="59.5" cy="56" rx="59.5" ry="56" fill="white"/>
<path d="M88.8963 61.0771C88.8963 58.1496 88.8461 55.4747 88.8461 52.655C88.8461 43.4176 80.2749 37.0067 72.5551 37.0067C70.0572 37.0212 67.5925 37.5843 65.333 38.6566C63.0734 39.7289 61.0734 41.2847 59.4724 43.2155C57.8722 41.2837 55.8727 39.7268 53.6135 38.6533C51.3542 37.5798 48.8895 37.0156 46.3914 37C38.6716 37 30.1004 43.4614 30.1004 52.6483C30.1004 55.5253 30.1004 58.3012 30.0502 61.2792C30 64.8637 30 68.7497 30 73.5452V73.9494H36.9671V73.5452C36.9671 68.7497 37.0172 64.8637 37.0172 61.3298C37.0172 58.2978 37.0674 55.5253 37.0674 52.6483C37.0674 47.2985 42.4805 43.9668 46.3914 43.9668C50.953 43.9668 55.8659 47.248 55.8659 52.5472C55.8659 54.9694 55.9161 56.6858 55.9161 58.8065C55.9663 61.7846 56.0165 65.4701 56.0165 73.4441V73.8484H62.9835V73.4441C62.9835 65.5274 63.0337 61.7846 63.0839 58.8065C63.1341 56.7364 63.1341 54.9711 63.1341 52.5472C63.1341 47.248 68.047 43.9668 72.6086 43.9668C76.5178 43.9668 81.9326 47.248 81.9326 52.6483C81.9326 55.4747 81.9326 58.2068 81.9828 61.1276V61.3803C82.0329 64.9176 82.0329 68.8002 82.0329 73.5957V74H89V73.5957C89 68.8002 88.9498 64.8637 88.9498 61.3298L88.8963 61.0771Z" fill="#2BCFA2"/>
</svg>
