<svg xmlns="http://www.w3.org/2000/svg" width="274.108" height="287.495" viewBox="0 0 274.108 287.495">
  <g id="Grupo_1635" data-name="Grupo 1635" transform="matrix(-0.454, -0.891, 0.891, -0.454, 90.641, 287.34)">
    <path id="Caminho_402" data-name="Caminho 402" d="M39.778.038.772,10.563a1.043,1.043,0,0,0-.539,1.664l20.641,25.46a1.043,1.043,0,0,0,1.739-.183L40.979,1.519A1.043,1.043,0,0,0,39.778.038Z" transform="matrix(-0.208, 0.978, -0.978, -0.208, 53.49, 79.418)" fill="#ffa7a9"/>
    <path id="Caminho_403" data-name="Caminho 403" d="M1.564,41.425,36.6,21.312a1.043,1.043,0,0,0,.1-1.746L10.255.2A1.043,1.043,0,0,0,8.62.822L.025,40.3A1.043,1.043,0,0,0,1.564,41.425Z" transform="matrix(-0.208, 0.978, -0.978, -0.208, 86.135, 197.475)" fill="#ffa7a9"/>
    <path id="Caminho_404" data-name="Caminho 404" d="M0,1.084,1.227,33.633a1.043,1.043,0,0,0,1.5.9L26.46,22.91a1.043,1.043,0,0,0,.212-1.736L1.713.246A1.043,1.043,0,0,0,0,1.084Z" transform="matrix(-0.208, 0.978, -0.978, -0.208, 143.512, 162.32)" fill="#ffa7a9"/>
    <path id="Caminho_405" data-name="Caminho 405" d="M26.85,11.356,1.467.091A1.043,1.043,0,0,0,0,1.044v22.53a1.043,1.043,0,0,0,1.467.953L26.85,13.262A1.043,1.043,0,0,0,26.85,11.356Z" transform="matrix(-0.208, 0.978, -0.978, -0.208, 29.792, 136.891)" fill="#ffa7a9"/>
    <path id="Caminho_406" data-name="Caminho 406" d="M32.523,15.767,3.63.127A1.043,1.043,0,0,0,2.093.962L0,27.534A1.043,1.043,0,0,0,1.39,28.6L32.373,17.668A1.043,1.043,0,0,0,32.523,15.767Z" transform="matrix(-0.208, 0.978, -0.978, -0.208, 96.249, 127.795)" fill="#ffa7a9"/>
    <path id="Caminho_880" data-name="Caminho 880" d="M32.523,15.767,3.63.127A1.043,1.043,0,0,0,2.093.962L0,27.534A1.043,1.043,0,0,0,1.39,28.6L32.373,17.668A1.043,1.043,0,0,0,32.523,15.767Z" transform="translate(38.923 -76.731) rotate(19)" fill="#ffa7a9"/>
    <path id="Caminho_407" data-name="Caminho 407" d="M1.464.99,0,28.723a1.043,1.043,0,0,0,1.414,1.029l21.046-8.041A1.043,1.043,0,0,0,22.828,20L3.245.309A1.043,1.043,0,0,0,1.464.99Z" transform="matrix(-0.208, 0.978, -0.978, -0.208, 45.524, 26.975)" fill="#ffa7a9"/>
    <path id="Caminho_408" data-name="Caminho 408" d="M15.771.458.181,23.441a1.043,1.043,0,0,0,.678,1.612l22.172,4a1.043,1.043,0,0,0,1.2-1.274L17.648.8A1.043,1.043,0,0,0,15.771.458Z" transform="matrix(-0.208, 0.978, -0.978, -0.208, 196.467, 233.502)" fill="#ffa7a9"/>
    <path id="Caminho_411" data-name="Caminho 411" d="M13.388.525.139,23.637a1.043,1.043,0,0,0,.8,1.556l21.5,2.219a1.043,1.043,0,0,0,1.1-1.361L15.285.72A1.043,1.043,0,0,0,13.388.525Z" transform="matrix(-0.208, 0.978, -0.978, -0.208, 126.263, 211.1)" fill="#ffa7a9"/>
    <path id="Caminho_412" data-name="Caminho 412" d="M17.8.236.385,14.4A1.043,1.043,0,0,0,.57,16.14L16.806,24.4a1.043,1.043,0,0,0,1.514-.875L19.5,1.1A1.043,1.043,0,0,0,17.8.236Z" transform="matrix(-0.208, 0.978, -0.978, -0.208, 99.375, 74.185)" fill="#ffa7a9"/>
    <path id="Caminho_881" data-name="Caminho 881" d="M17.8.236.385,14.4A1.043,1.043,0,0,0,.57,16.14L16.806,24.4a1.043,1.043,0,0,0,1.514-.875L19.5,1.1A1.043,1.043,0,0,0,17.8.236Z" transform="translate(39.181 -3.331) rotate(-135)" fill="#ffa7a9"/>
    <path id="Caminho_413" data-name="Caminho 413" d="M4,17.772,14.457,5.4a1.043,1.043,0,0,0-.5-1.675L1.336.043A1.043,1.043,0,0,0,.01,1.183L2.171,17.238A1.043,1.043,0,0,0,4,17.772Z" transform="matrix(-0.208, 0.978, -0.978, -0.208, 142.202, 240.276)" fill="#ffa7a9"/>
    <path id="Caminho_414" data-name="Caminho 414" d="M1.269,16.117,17.1,12.661a1.043,1.043,0,0,0,.619-1.635L9.944.426A1.043,1.043,0,0,0,8.2.524L.141,14.579A1.043,1.043,0,0,0,1.269,16.117Z" transform="matrix(-0.208, 0.978, -0.978, -0.208, 175.085, 189.566)" fill="#ffa7a9"/>
    <path id="Caminho_415" data-name="Caminho 415" d="M.031,1.293l3.537,14.5a1.043,1.043,0,0,0,1.65.578L14.8,8.976a1.043,1.043,0,0,0-.14-1.743L1.541.129A1.043,1.043,0,0,0,.031,1.293Z" transform="matrix(-0.208, 0.978, -0.978, -0.208, 74.36, 3.449)" fill="#ffa7a9"/>
    <path id="Caminho_416" data-name="Caminho 416" d="M1.469,14.959,13.941,9.424A1.043,1.043,0,0,0,14.217,7.7L6.009.27A1.043,1.043,0,0,0,4.318.718L.054,13.679A1.043,1.043,0,0,0,1.469,14.959Z" transform="matrix(-0.208, 0.978, -0.978, -0.208, 107.455, 32.075)" fill="#ffa7a9"/>
  </g>
</svg>
