<svg xmlns="http://www.w3.org/2000/svg" width="205.053" height="264.079" viewBox="0 0 205.053 264.079">
  <g id="Grupo_1636" data-name="Grupo 1636" transform="translate(-5.15 5.591) rotate(-3)">
    <rect id="Retângulo_1107" data-name="Retângulo 1107" width="1.246" height="6.119" transform="matrix(0.574, 0.819, -0.819, 0.574, 82.473, 50.206)" fill="#00a35e" stroke="#00a35e" stroke-width="1.5"/>
    <rect id="Retângulo_1108" data-name="Retângulo 1108" width="1.246" height="6.49" transform="matrix(-0.174, 0.985, -0.985, -0.174, 108.807, 64.435)" fill="#00a35e" stroke="#00a35e" stroke-width="1.5"/>
    <rect id="Retângulo_1109" data-name="Retângulo 1109" width="1.246" height="4.509" transform="translate(99.245 103.726) rotate(76.759)" fill="#00a35e" stroke="#00a35e" stroke-width="1.5"/>
    <rect id="Retângulo_1110" data-name="Retângulo 1110" width="6.101" height="1.246" transform="matrix(0.887, 0.462, -0.462, 0.887, 63.244, 96.397)" fill="#00a35e" stroke="#00a35e" stroke-width="1.5"/>
    <rect id="Retângulo_1111" data-name="Retângulo 1111" width="4.424" height="1.246" transform="matrix(0.835, 0.551, -0.551, 0.835, 57.355, 130.139)" fill="#00a35e" stroke="#00a35e" stroke-width="1.5"/>
    <rect id="Retângulo_1112" data-name="Retângulo 1112" width="6.068" height="1.246" transform="translate(31.599 161.592) rotate(72.075)" fill="#00a35e" stroke="#00a35e" stroke-width="1.5"/>
    <rect id="Retângulo_1113" data-name="Retângulo 1113" width="1.246" height="4.835" transform="translate(46.202 53.515) rotate(64.244)" fill="#00a35e" stroke="#00a35e" stroke-width="1.5"/>
    <rect id="Retângulo_1114" data-name="Retângulo 1114" width="5.875" height="1.246" transform="translate(144.222 36.941) rotate(24.67)" fill="#00a35e" stroke="#00a35e" stroke-width="1.5"/>
    <rect id="Retângulo_1115" data-name="Retângulo 1115" width="6.799" height="1.246" transform="translate(5.184 76.652) rotate(15.716)" fill="#00a35e" stroke="#00a35e" stroke-width="1.5"/>
    <rect id="Retângulo_1116" data-name="Retângulo 1116" width="5.804" height="1.246" transform="matrix(0.856, 0.518, -0.518, 0.856, 146.369, 200.925)" fill="#00a35e" stroke="#00a35e" stroke-width="1.5"/>
    <rect id="Retângulo_1117" data-name="Retângulo 1117" width="1.246" height="5.093" transform="translate(163.754 162.197) rotate(60.389)" fill="#00a35e" stroke="#00a35e" stroke-width="1.5"/>
    <rect id="Retângulo_1118" data-name="Retângulo 1118" width="1.246" height="4.799" transform="translate(64.335 30.613) rotate(50.426)" fill="#00a35e" stroke="#00a35e" stroke-width="1.5"/>
    <rect id="Retângulo_1121" data-name="Retângulo 1121" width="1.246" height="6.113" transform="matrix(-0.086, 0.996, -0.996, -0.086, 98.116, 0.524)" fill="#00a35e" stroke="#00a35e" stroke-width="1.5"/>
    <rect id="Retângulo_1122" data-name="Retângulo 1122" width="1.246" height="7.057" transform="translate(12.384 2.927) rotate(67.529)" fill="#00a35e" stroke="#00a35e" stroke-width="1.5"/>
    <rect id="Retângulo_1123" data-name="Retângulo 1123" width="6.468" height="1.246" transform="translate(41.35 -1.643) rotate(84.217)" fill="#00a35e" stroke="#00a35e" stroke-width="1.5"/>
    <rect id="Retângulo_1124" data-name="Retângulo 1124" width="1.246" height="6.005" transform="translate(92.128 184.864) rotate(32.519)" fill="#00a35e" stroke="#00a35e" stroke-width="1.5"/>
    <rect id="Retângulo_1125" data-name="Retângulo 1125" width="5.574" height="1.246" transform="translate(109.408 130.224) rotate(77.267)" fill="#00a35e" stroke="#00a35e" stroke-width="1.5"/>
    <rect id="Retângulo_1129" data-name="Retângulo 1129" width="1.246" height="5.796" transform="translate(163.603 252.836) rotate(45.704)" fill="#00a35e" stroke="#00a35e" stroke-width="1.5"/>
    <rect id="Retângulo_1130" data-name="Retângulo 1130" width="1.246" height="5.412" transform="matrix(-0.174, 0.985, -0.985, -0.174, 12.362, 39.879)" fill="#00a35e" stroke="#00a35e" stroke-width="1.5"/>
    <rect id="Retângulo_1131" data-name="Retângulo 1131" width="4.784" height="1.246" transform="translate(113.05 241.192) rotate(81.881)" fill="#00a35e" stroke="#00a35e" stroke-width="1.5"/>
    <rect id="Retângulo_1132" data-name="Retângulo 1132" width="1.246" height="6.635" transform="translate(188.772 209.268) rotate(79.718)" fill="#00a35e" stroke="#00a35e" stroke-width="1.5"/>
    <rect id="Retângulo_1133" data-name="Retângulo 1133" width="7.205" height="1.246" transform="translate(1.136 157.546) rotate(65.712)" fill="#00a35e" stroke="#00a35e" stroke-width="1.5"/>
    <rect id="Retângulo_1134" data-name="Retângulo 1134" width="5.918" height="1.246" transform="translate(190.016 264.883) rotate(20.542)" fill="#00a35e" stroke="#00a35e" stroke-width="1.5"/>
    <rect id="Retângulo_1135" data-name="Retângulo 1135" width="5.006" height="1.246" transform="matrix(-0.174, 0.985, -0.985, -0.174, 140.831, 136.174)" fill="#00a35e" stroke="#00a35e" stroke-width="1.5"/>
    <rect id="Retângulo_1136" data-name="Retângulo 1136" width="6.134" height="1.246" transform="matrix(-0.053, 0.999, -0.999, -0.053, 33.025, 197.796)" fill="#00a35e" stroke="#00a35e" stroke-width="1.5"/>
    <rect id="Retângulo_1137" data-name="Retângulo 1137" width="1.246" height="7.334" transform="translate(55.335 168.735) rotate(70.124)" fill="#00a35e" stroke="#00a35e" stroke-width="1.5"/>
    <rect id="Retângulo_1138" data-name="Retângulo 1138" width="6.009" height="1.246" transform="translate(143.86 73.389) rotate(64.16)" fill="#00a35e" stroke="#00a35e" stroke-width="1.5"/>
    <rect id="Retângulo_1139" data-name="Retângulo 1139" width="1.246" height="6.45" transform="matrix(-0.174, 0.985, -0.985, -0.174, 48.022, 233.834)" fill="#00a35e" stroke="#00a35e" stroke-width="1.5"/>
    <rect id="Retângulo_1140" data-name="Retângulo 1140" width="6.734" height="1.246" transform="translate(74.424 233.409) rotate(32.446)" fill="#00a35e" stroke="#00a35e" stroke-width="1.5"/>
    <rect id="Retângulo_1141" data-name="Retângulo 1141" width="6.718" height="1.246" transform="matrix(0.876, 0.482, -0.482, 0.876, 120.022, 193.882)" fill="#00a35e" stroke="#00a35e" stroke-width="1.5"/>
    <rect id="Retângulo_1142" data-name="Retângulo 1142" width="1.246" height="6.837" transform="translate(93.253 161.799) rotate(70.541)" fill="#00a35e" stroke="#00a35e" stroke-width="1.5"/>
    <rect id="Retângulo_1143" data-name="Retângulo 1143" width="1.246" height="8.04" transform="translate(23.629 116.881) rotate(85.379)" fill="#00a35e" stroke="#00a35e" stroke-width="1.5"/>
  </g>
</svg>
