<svg width="169" height="30" viewBox="0 0 169 30" fill="none" xmlns="http://www.w3.org/2000/svg">
<path d="M167.152 24.842C166.596 24.3124 165.855 24.0221 165.087 24.0333C164.319 24.0445 163.587 24.3564 163.047 24.902C162.764 25.1769 162.543 25.5088 162.398 25.8757C162.254 26.2426 162.189 26.6361 162.208 27.03C162.194 27.4289 162.267 27.826 162.423 28.1935C162.578 28.5611 162.812 28.8903 163.108 29.158C163.659 29.7001 164.403 30.0018 165.176 29.997H165.206C165.583 30.0003 165.956 29.9247 166.302 29.775C166.648 29.6254 166.958 29.405 167.214 29.128C167.494 28.8448 167.713 28.5071 167.857 28.136C168.001 27.7648 168.068 27.368 168.053 26.97C168.026 26.1737 167.705 25.4156 167.152 24.842Z" fill="white"/>
<path d="M62.0899 18.5489C62.0988 16.6361 61.6027 14.7547 60.6519 13.0949C59.7412 11.5541 58.4383 10.2822 56.8759 9.40893C55.2706 8.52523 53.4643 8.0709 51.6319 8.08993C49.7161 8.07266 47.828 8.54711 46.1479 9.46793C44.5419 10.3743 43.223 11.7139 42.3419 13.3339C41.407 15.041 40.9321 16.9619 40.9639 18.9079C40.9347 20.8695 41.4313 22.8031 42.4019 24.5079C43.3489 26.1599 44.7537 27.5026 46.4469 28.3739C48.2885 29.3234 50.3384 29.7971 52.4099 29.7519C54.0392 29.7699 55.6568 29.4749 57.1749 28.8829C58.5545 28.325 59.7782 27.4407 60.7409 26.3059L60.8909 26.1559L58.5239 23.3389L58.3139 23.5489C57.5794 24.3514 56.6789 24.9842 55.675 25.4033C54.6711 25.8225 53.588 26.0179 52.5009 25.9759C50.9736 26.018 49.4661 25.6228 48.1559 24.8369C47.0503 24.1464 46.1987 23.1158 45.7289 21.8999L62.1209 18.6939L62.0899 18.5489ZM45.0689 18.8189V18.7289C45.0373 17.4592 45.3258 16.2019 45.9079 15.0729C46.4226 14.0554 47.2248 13.2115 48.2149 12.6459C49.2468 12.0617 50.4152 11.7619 51.6009 11.7769C53.0744 11.7403 54.5149 12.2168 55.6759 13.1249C56.7263 13.9633 57.4737 15.1222 57.8039 16.4249L45.0689 18.8189Z" fill="#2BCFA2"/>
<path d="M77.343 25.741C76.796 25.9834 76.2034 26.1062 75.605 26.101C75.1991 26.1335 74.7909 26.0781 74.4083 25.9384C74.0257 25.7988 73.6777 25.5783 73.388 25.292C72.853 24.6002 72.5869 23.738 72.639 22.865V0H68.383V23.194C68.3289 24.0763 68.4521 24.9606 68.7454 25.7944C69.0388 26.6283 69.4963 27.395 70.091 28.049C70.7376 28.6565 71.5024 29.1243 72.3376 29.4234C73.1729 29.7224 74.0608 29.8462 74.946 29.787C75.8963 29.7963 76.8404 29.634 77.733 29.308L77.913 29.248L77.673 25.592L77.343 25.741Z" fill="#2BCFA2"/>
<path d="M91.4871 25.741C90.94 25.9834 90.3475 26.1062 89.7491 26.101C89.3431 26.1335 88.9349 26.0781 88.5523 25.9384C88.1697 25.7988 87.8217 25.5783 87.5321 25.292C86.9971 24.6002 86.731 23.738 86.7831 22.865V0H82.5271V23.194C82.4729 24.0763 82.5961 24.9606 82.8895 25.7944C83.1829 26.6283 83.6404 27.395 84.2351 28.049C84.8817 28.6565 85.6464 29.1243 86.4817 29.4234C87.317 29.7224 88.2049 29.8462 89.0901 29.787C90.0404 29.7963 90.9845 29.634 91.8771 29.308L92.0571 29.248L91.8171 25.592L91.4871 25.741Z" fill="#2BCFA2"/>
<path d="M111.085 9.49913C109.348 8.55696 107.396 8.08211 105.421 8.12112C103.438 8.10039 101.481 8.57399 99.7267 9.49913C98.0777 10.3995 96.7088 11.7372 95.7708 13.3651C94.8272 15.0821 94.3325 17.0095 94.3325 18.9686C94.3325 20.9278 94.8272 22.8552 95.7708 24.5721C96.7088 26.2001 98.0777 27.5378 99.7267 28.4381C101.473 29.3866 103.434 29.8714 105.421 29.8461C107.399 29.8752 109.351 29.39 111.085 28.4381C112.725 27.5365 114.084 26.1984 115.011 24.5721C115.954 22.8552 116.449 20.9278 116.449 18.9686C116.449 17.0095 115.954 15.0821 115.011 13.3651C114.101 11.7258 112.738 10.3835 111.085 9.49913V9.49913ZM111.265 22.6241C110.717 23.6644 109.885 24.5271 108.865 25.1111C107.818 25.7156 106.627 26.0265 105.419 26.0111C104.209 26.0343 103.017 25.7228 101.973 25.1111C100.958 24.5111 100.121 23.653 99.5457 22.6241C98.9331 21.4935 98.6231 20.2238 98.6458 18.9381C98.6194 17.652 98.9297 16.3814 99.5457 15.2521C100.112 14.2332 100.94 13.3847 101.946 12.7951C103.001 12.2141 104.187 11.9148 105.392 11.9261C106.597 11.9072 107.786 12.207 108.838 12.7951C109.856 13.3676 110.689 14.2204 111.238 15.2521C111.826 16.3905 112.125 17.6566 112.107 18.9381C112.166 20.2195 111.875 21.4928 111.265 22.6211V22.6241Z" fill="#2BCFA2"/>
<path d="M153.187 8.24107C153.187 11.0881 153.157 13.3951 153.157 15.4931C153.157 17.2931 153.127 18.9391 153.127 20.6471C153.127 23.8231 149.891 25.8011 147.553 25.8011C144.826 25.8011 141.889 23.8531 141.889 20.7071C141.889 19.2391 141.859 18.2201 141.859 16.9911C141.829 15.3431 141.799 13.0651 141.799 8.30107V8.06107H137.634V8.30107C137.634 13.0661 137.604 15.3431 137.574 17.0511C137.544 18.2511 137.544 19.2681 137.544 20.7371C137.544 23.8831 134.607 25.8311 131.88 25.8311C129.543 25.8311 126.306 23.8831 126.306 20.6771C126.306 18.9991 126.306 17.3771 126.276 15.6431V15.4931C126.246 13.3931 126.246 11.0881 126.246 8.24107V8.00108H122.112V8.24107C122.112 11.0881 122.142 13.4251 122.142 15.5231V15.6431C122.142 17.3811 122.172 18.9691 122.172 20.6431C122.172 26.1271 127.296 29.9331 131.911 29.9331C133.404 29.9245 134.877 29.5902 136.228 28.9536C137.579 28.317 138.775 27.3933 139.732 26.2471C140.689 27.3933 141.885 28.317 143.235 28.9536C144.586 29.5902 146.06 29.9245 147.553 29.9331C152.168 29.9331 157.292 26.0971 157.292 20.6431C157.292 18.9351 157.292 17.2871 157.322 15.5191C157.352 13.3911 157.352 11.0841 157.352 8.23708V7.99707H153.187V8.24107Z" fill="#2BCFA2"/>
<path d="M35.21 22.295C35.21 20.557 35.18 18.969 35.18 17.295C35.18 11.811 30.056 8.00497 25.441 8.00497C23.9477 8.01358 22.4743 8.34785 21.1235 8.98447C19.7727 9.62109 18.5771 10.5447 17.62 11.691C16.6634 10.5441 15.468 9.61981 14.1174 8.98249C12.7668 8.34517 11.2934 8.01021 9.79998 8.00098C5.18498 8.00098 0.0609741 11.837 0.0609741 17.291C0.0609741 18.999 0.0609753 20.647 0.0309753 22.415C0.000975342 24.543 0.000976563 26.85 0.000976563 29.697V29.937H4.16598V29.697C4.16598 26.85 4.19598 24.543 4.19598 22.445C4.19598 20.645 4.22598 18.999 4.22598 17.291C4.22598 14.115 7.46198 12.137 9.79998 12.137C12.527 12.137 15.464 14.085 15.464 17.231C15.464 18.669 15.494 19.688 15.494 20.947C15.524 22.715 15.554 24.903 15.554 29.637V29.877H19.719V29.637C19.719 24.937 19.749 22.715 19.779 20.947C19.809 19.718 19.809 18.67 19.809 17.231C19.809 14.085 22.746 12.137 25.473 12.137C27.81 12.137 31.047 14.085 31.047 17.291C31.047 18.969 31.047 20.591 31.077 22.325V22.475C31.107 24.575 31.107 26.88 31.107 29.727V29.967H35.272V29.727C35.272 26.88 35.242 24.543 35.242 22.445L35.21 22.295Z" fill="#2BCFA2"/>
</svg>
